<svg width="240" height="75" viewBox="0 0 240 75" fill="none" xmlns="http://www.w3.org/2000/svg">
<path fill-rule="evenodd" clip-rule="evenodd" d="M23.0516 25.65C23.6563 25.1014 23.9833 24.6881 23.4963 24.6881C22.4728 24.6881 16.2845 25.6096 15.0092 20.8929C13.7339 16.1761 20.5575 1.94038 20.8139 1.33C21.0586 0.743375 20.5504 0 19.8022 0C19.0657 0 18.5245 0.8075 18.4469 0.9025C11.4845 9.72088 1.76452 20.7266 0.512757 25.4719C-2.65665 37.4846 9.59276 42.3534 17.3245 43.244C17.3499 43.2477 17.3757 43.2459 17.4004 43.2387C17.425 43.2315 17.4478 43.219 17.4672 43.2021C17.4866 43.1852 17.5022 43.1643 17.5129 43.1408C17.5236 43.1173 17.5292 43.0917 17.5292 43.0659V38.8004C17.5292 33.0434 19.6633 28.728 23.0516 25.65ZM216.546 25.65C215.941 25.1014 215.614 24.6881 216.103 24.6881C217.125 24.6881 223.313 25.6096 224.588 20.8929C225.863 16.1761 219.042 1.94038 218.783 1.33C218.536 0.743375 219.047 0 219.795 0C220.532 0 221.073 0.8075 221.15 0.9025C228.113 9.7185 237.833 20.7242 239.085 25.4695C242.254 37.4823 230.005 42.351 222.273 43.2416C222.247 43.2454 222.222 43.2436 222.197 43.2363C222.172 43.2291 222.15 43.2166 222.13 43.1997C222.111 43.1828 222.095 43.1619 222.084 43.1384C222.074 43.1149 222.068 43.0894 222.068 43.0635V38.798C222.068 33.041 219.934 28.728 216.546 25.65ZM208.409 56.3184C208.409 60.9757 202.237 63.6381 198.221 63.6381C193.925 63.6381 187.845 60.9781 187.845 56.3184V39.9C187.845 35.245 193.925 33.06 198.221 33.06C202.237 33.06 208.409 35.245 208.409 39.9V56.3184ZM198.221 22.8879C188.692 22.9829 177.572 28.5902 177.572 39.9V57.1045C177.572 68.6066 188.694 74.024 198.221 74.119C207.562 74.024 218.685 68.6066 218.685 57.1045V39.9C218.685 28.5902 207.562 22.9829 198.221 22.8879ZM136.619 56.3184C136.619 60.9757 130.447 63.6381 126.43 63.6381C122.136 63.6381 116.056 60.9781 116.056 56.3184V39.9C116.056 35.245 122.136 33.06 126.43 33.06C130.447 33.06 136.619 35.245 136.619 39.9V56.3184ZM126.43 22.8879C116.903 22.9829 105.783 28.5902 105.783 39.9V57.1045C105.783 68.6066 116.903 74.024 126.43 74.119C135.772 74.024 146.894 68.6066 146.894 57.1045V39.9C146.894 28.5902 135.772 22.9829 126.43 22.8879ZM105.012 26.6332C97.4069 24.5385 91.7857 23.6621 83.6351 23.6597C75.4822 23.6597 69.8445 24.5385 62.2539 26.6238C62.1815 26.6358 62.1134 26.6666 62.0563 26.7131C61.9993 26.7597 61.9551 26.8205 61.9283 26.8894C61.9015 26.9584 61.8929 27.0332 61.9034 27.1066C61.9139 27.1799 61.943 27.2492 61.9881 27.3078C64.5881 29.4928 65.6775 32.414 66.1833 35.7105C70.2184 34.686 74.3417 34.0553 78.4963 33.8271V73.7817C78.4939 73.9242 78.5951 74.0121 78.7434 74.0121H88.5198C88.6892 74.0248 88.7724 73.9512 88.7692 73.7912V33.8343C92.9787 34.086 96.4869 34.6869 100.63 35.7105C101.261 32.433 102.579 29.3764 105.24 27.3315C105.475 27.0323 105.27 26.7045 105.012 26.6332ZM177.946 23.2394C177.216 23.1349 175.056 22.819 173.157 22.8902C163.8 23.256 153.216 28.8752 153.216 39.9V73.8886C153.212 74.0311 153.313 74.1166 153.463 74.1166H163.24C163.409 74.1309 163.492 74.0573 163.489 73.8958V39.9C163.489 36.2662 167.889 34.0171 171.56 33.2595C172.626 29.6352 174.722 27.0204 177.932 24.3984C178.494 23.9376 178.463 23.313 177.946 23.2394ZM51.2139 42.8022C51.2142 42.8596 51.2034 42.9165 51.1819 42.9697C51.1604 43.0228 51.1288 43.0712 51.0888 43.112C51.0488 43.1528 51.0013 43.1852 50.9488 43.2075C50.8964 43.2297 50.8402 43.2413 50.7833 43.2416H32.0445V39.7812C32.0445 35.055 37.5622 32.8391 41.9198 32.8391C45.9928 32.8391 51.2163 35.0574 51.2163 39.7812L51.2139 42.8022ZM41.9198 22.5198C32.2563 22.6195 21.6233 28.3053 21.6233 39.7789V57.228C21.6233 68.8916 32.2586 74.3897 41.9198 74.4847C48.8422 74.4135 56.7245 71.5017 60.4775 65.322C60.6022 65.1177 60.4916 64.847 60.301 64.733C56.9928 62.8045 55.0728 61.7357 51.7951 59.8571C51.6916 59.7977 51.581 59.7978 51.4963 59.9403C49.7057 62.9755 45.1339 64.6523 41.9198 64.6523C37.5622 64.6523 32.0445 61.9519 32.0445 57.228V52.0125H58.8304C60.261 52.0125 61.421 50.8321 61.421 49.3763V39.7765C61.421 28.3052 51.3928 22.6171 41.9198 22.5198Z" fill="white"/>
</svg>
